<?xml version="1.0" standalone="no"?>
<!DOCTYPE svg PUBLIC "-//W3C//DTD SVG 20010904//EN"
 "http://www.w3.org/TR/2001/REC-SVG-20010904/DTD/svg10.dtd">
<svg version="1.0" xmlns="http://www.w3.org/2000/svg"
 width="300.000000pt" height="96.000000pt" viewBox="0 0 300.000000 96.000000"
 preserveAspectRatio="xMidYMid meet">
<metadata>
Created by potrace 1.10, written by Peter Selinger 2001-2011
</metadata>
<g transform="translate(0.000000,96.000000) scale(0.050000,-0.050000)"
fill="#000000" stroke="none">
<path d="M1680 1565 c-55 -74 -174 -285 -265 -469 -185 -376 -195 -386 -195
-210 0 447 -140 737 -165 341 -33 -523 -385 -968 -613 -775 -84 70 -89 1 -6
-78 220 -211 664 317 664 789 0 31 8 57 17 57 10 0 24 -126 32 -280 21 -399
43 -395 272 50 178 345 318 590 338 590 8 0 -15 -103 -51 -228 -212 -735 -148
-1329 106 -995 95 124 84 176 -13 63 -207 -239 -197 354 18 1108 64 222 9 237
-139 37z"/>
<path d="M3479 1655 c-86 -90 -172 -232 -342 -565 -97 -188 -179 -326 -184
-310 -5 17 -15 134 -21 262 -13 265 -38 358 -94 358 -31 0 -38 -15 -38 -85 -1
-311 -219 -791 -402 -886 -117 -61 -281 -10 -237 73 44 81 11 112 -37 35 -93
-151 -144 -124 -144 76 0 174 -39 197 -65 40 -32 -189 38 -310 143 -250 49 28
55 26 105 -27 221 -234 561 177 673 814 15 88 19 63 33 -203 24 -456 41 -452
311 66 185 356 300 554 313 541 5 -5 -18 -98 -50 -207 -172 -579 -184 -1127
-24 -1127 48 0 181 153 181 209 0 33 -14 24 -76 -48 l-77 -88 -33 48 c-72 102
-28 559 99 1018 87 317 79 375 -34 256z"/>
<path d="M5175 1621 c-81 -96 -285 -451 -396 -691 -99 -214 -98 -216 -120 119
-19 285 -39 358 -95 347 -26 -5 -38 -39 -49 -146 -62 -560 -377 -983 -611
-819 -41 29 -42 35 -14 75 16 23 30 54 30 68 0 38 -39 31 -54 -9 -68 -195
-186 -139 -158 75 8 63 5 102 -9 111 -40 24 -64 -25 -66 -134 -4 -198 43 -265
152 -216 43 20 56 16 101 -29 213 -213 652 300 654 762 1 66 37 170 41 116 1
-11 8 -144 17 -296 24 -429 34 -426 313 106 305 582 367 668 272 375 -245
-753 -164 -1509 111 -1040 68 117 43 132 -47 27 -192 -225 -195 268 -6 996 83
318 69 360 -66 203z"/>
<path d="M1921 951 c-36 -44 -11 -95 44 -87 33 4 45 19 45 56 0 58 -52 76 -89
31z"/>
<path d="M3641 943 c-14 -27 -12 -48 8 -75 39 -54 122 15 90 75 -26 47 -72 48
-98 0z"/>
<path d="M5373 967 c-19 -20 -16 -103 5 -116 27 -16 77 7 91 43 21 54 -56 112
-96 73z"/>
<path d="M5372 729 c-24 -64 -12 -260 19 -305 44 -62 94 -55 178 23 66 63 96
153 51 153 -11 0 -20 -7 -20 -16 0 -8 -26 -47 -58 -85 -80 -95 -112 -62 -112
115 0 128 -30 188 -58 115z"/>
</g>
</svg>
